HIERARCHY
ROOT hip
{
	OFFSET 0.000000 0.000000 0.000000
	CHANNELS 6 Xposition Yposition Zposition Zrotation Yrotation Xrotation 
	JOINT lhipjoint
	{
		OFFSET 0.000000 0.000000 0.000000
		CHANNELS 3 Zrotation Yrotation Xrotation
		JOINT lfemur
		{
			OFFSET 1.363060 -1.794630 0.839290
			CHANNELS 3 Zrotation Yrotation Xrotation
			JOINT ltibia
			{
				OFFSET 2.448110 -6.726130 0.000000
				CHANNELS 3 Zrotation Yrotation Xrotation
				JOINT lfoot
				{
					OFFSET 2.562200 -7.039590 0.000000
					CHANNELS 3 Zrotation Yrotation Xrotation
					JOINT ltoes
					{
						OFFSET 0.157640 -0.433110 2.322550
						CHANNELS 3 Zrotation Yrotation Xrotation
						End Site
						{
							OFFSET 0.000000 0.000000 0.000000
						}
					}
				}
			}
		}
	}
	JOINT rhipjoint
	{
		OFFSET 0.000000 0.000000 0.000000
		CHANNELS 3 Zrotation Yrotation Xrotation
		JOINT rfemur
		{
			OFFSET -1.305520 -1.794630 0.839290
			CHANNELS 3 Zrotation Yrotation Xrotation
			JOINT rtibia
			{
				OFFSET -2.542530 -6.985550 0.000000
				CHANNELS 3 Zrotation Yrotation Xrotation
				JOINT rfoot
				{
					OFFSET -2.568260 -7.056230 0.000000
					CHANNELS 3 Zrotation Yrotation Xrotation
					JOINT rtoes
					{
						OFFSET -0.164730 -0.452590 2.363150
						CHANNELS 3 Zrotation Yrotation Xrotation
						End Site
						{
							OFFSET 0.000000 0.000000 0.000000
						}
					}
				}
			}
		}
	}
	JOINT lowerback
	{
		OFFSET 0.000000 0.000000 0.000000
		CHANNELS 3 Zrotation Yrotation Xrotation
		JOINT upperback
		{
			OFFSET 0.028270 2.035590 -0.193380
			CHANNELS 3 Zrotation Yrotation Xrotation
			JOINT thorax
			{
				OFFSET 0.056720 2.048850 -0.042750
				CHANNELS 3 Zrotation Yrotation Xrotation
				JOINT lowerneck
				{
					OFFSET 0.000000 0.000000 0.000000
					CHANNELS 3 Zrotation Yrotation Xrotation
					JOINT upperneck
					{
						OFFSET -0.054170 1.746240 0.172020
						CHANNELS 3 Zrotation Yrotation Xrotation
						JOINT head
						{
							OFFSET 0.104070 1.761360 -0.123970
							CHANNELS 3 Zrotation Yrotation Xrotation
							End Site
							{
								OFFSET 0.000000 0.000000 0.000000
							}
						}
					}
				}
				JOINT lclavicle
				{
					OFFSET 0.000000 0.000000 0.000000
					CHANNELS 3 Zrotation Yrotation Xrotation
					JOINT lhumerus
					{
						OFFSET 3.362410 1.200890 -0.311210
						CHANNELS 3 Zrotation Yrotation Xrotation
						JOINT lradius
						{
							OFFSET 4.983000 -0.000000 -0.000000
							CHANNELS 3 Zrotation Yrotation Xrotation
							JOINT lwrist
							{
								OFFSET 3.483560 -0.000000 -0.000000
								CHANNELS 3 Zrotation Yrotation Xrotation
								JOINT lhand
								{
									OFFSET 0.000000 0.000000 0.000000
									CHANNELS 3 Zrotation Yrotation Xrotation
									JOINT lfingers
									{
										OFFSET 0.715260 -0.000000 -0.000000
										CHANNELS 3 Zrotation Yrotation Xrotation
										End Site
										{
											OFFSET 0.000000 0.000000 0.000000
										}
									}
								}
								JOINT lthumb
								{
									OFFSET 0.000000 0.000000 0.000000
									CHANNELS 3 Zrotation Yrotation Xrotation
									End Site
									{
										OFFSET 0.000000 0.000000 0.000000
									}
								}
							}
						}
					}
				}
				JOINT rclavicle
				{
					OFFSET 0.000000 0.000000 0.000000
					CHANNELS 3 Zrotation Yrotation Xrotation
					JOINT rhumerus
					{
						OFFSET -3.136600 1.374050 -0.404650
						CHANNELS 3 Zrotation Yrotation Xrotation
						JOINT rradius
						{
							OFFSET -5.241900 -0.000000 -0.000000
							CHANNELS 3 Zrotation Yrotation Xrotation
							JOINT rwrist
							{
								OFFSET -3.444170 -0.000000 -0.000000
								CHANNELS 3 Zrotation Yrotation Xrotation
								JOINT rhand
								{
									OFFSET 0.000000 0.000000 0.000000
									CHANNELS 3 Zrotation Yrotation Xrotation
									JOINT rfingers
									{
										OFFSET -0.622530 -0.000000 -0.000000
										CHANNELS 3 Zrotation Yrotation Xrotation
										End Site
										{
											OFFSET 0.000000 0.000000 0.000000
										}
									}
								}
								JOINT rthumb
								{
									OFFSET 0.000000 0.000000 0.000000
									CHANNELS 3 Zrotation Yrotation Xrotation
									End Site
									{
										OFFSET 0.000000 0.000000 0.000000
									}
								}
							}
						}
					}
				}
			}
		}
	}
}
MOTION
Frames: 6
Frame Time: 0.008333
-3.828247 18.020466 1.359068 -172.161552 -7.873128 166.189160 -1.778781 3.379730 2.701449 -8.817478 9.667049 15.395077 -0.041853 0.552549 3.448135 0.210471 -0.332629 5.220847 0.218300 -3.008000 -8.301000 0.465114 -4.285993 1.849785 19.129925 4.841399 0.710009 -1.385033 -5.856197 19.544959 3.419137 -16.345017 6.110626 -0.711400 5.390600 -15.025900 1.827746 -1.729475 8.289912 1.402537 -2.532722 -3.990563 6.143016 -1.168571 3.772274 -14.030456 -7.465520 -15.323055 -3.324093 -6.495249 7.139824 3.836200 -3.575000 6.466500 -2.191682 3.522438 -1.017328 67.844167 -58.102766 -87.752285 45.614108 -52.858458 -19.304143 0.967062 0.507808 77.286488 18.335295 7.294150 2.072400 -7.125000 0.000000 0.000000 -6.827900 36.408800 1.450800 5.048494 -1.926088 2.590455 -52.017377 58.333150 -81.580078 -82.085852 67.410116 -44.232756 0.925398 -3.020838 -17.665323 -38.102014 0.204759 -3.362600 7.125000 0.000000 0.000000 -8.618000 -24.539300 -4.307100 
-3.849054 18.016982 1.392481 -172.151085 -7.893595 166.057080 -1.784072 3.368537 2.692302 -8.965580 9.492065 14.954554 -0.010847 0.898249 4.407996 0.240649 -0.557438 4.835233 0.205400 -2.918200 -8.051100 0.468521 -4.283856 1.851199 19.111393 4.644651 0.761459 -1.391678 -5.870894 19.613095 3.369963 -16.129967 6.079449 -0.667900 5.226400 -14.555400 1.912121 -1.738447 8.337007 1.393605 -2.542648 -3.983041 6.056399 -1.166754 3.794447 -14.135049 -7.436048 -15.414235 -3.286206 -6.423817 7.200133 3.894200 -3.550300 6.539800 -2.219300 3.584256 -1.091198 69.282234 -58.983555 -88.961065 44.594050 -52.387413 -18.562824 0.971060 0.545638 77.422794 18.850693 7.311551 2.138600 -7.125000 0.000000 0.000000 -6.364300 36.439300 1.346500 5.023335 -1.979681 2.607898 -51.719170 58.831441 -81.146618 -78.686972 67.848316 -41.960498 0.846519 -2.912803 -17.552979 -38.546623 0.718066 -3.708300 7.125000 0.000000 0.000000 -8.861100 -24.037300 -4.535500 
-3.869245 18.013497 1.424767 -172.122313 -7.913460 165.933403 -1.786808 3.357328 2.681559 -9.079694 9.355539 14.607532 0.017563 1.170184 5.163499 0.261032 -0.707080 4.529981 0.203200 -2.902400 -8.007200 0.471941 -4.283192 1.851061 19.123748 4.512665 0.835581 -1.399028 -5.885617 19.677638 3.337432 -15.980151 6.023377 -0.630100 5.079200 -14.134500 2.025838 -1.745237 8.379774 1.381806 -2.551668 -3.968476 5.953827 -1.157724 3.798297 -14.221352 -7.393352 -15.406308 -3.236517 -6.350592 7.218491 3.967900 -3.515500 6.564400 -2.222051 3.599733 -1.103474 69.430448 -59.602873 -88.665999 43.942483 -52.077018 -18.093852 0.958575 0.577364 76.944852 19.041741 7.466412 2.218600 -7.125000 0.000000 0.000000 -6.201600 36.613700 1.285200 4.967645 -1.960340 2.545299 -50.539980 58.761343 -79.628444 -75.728198 67.968495 -40.022227 0.772832 -2.801461 -17.426598 -38.828381 1.319371 -4.100800 7.125000 0.000000 0.000000 -8.975500 -23.448300 -4.718800 
-3.889949 18.011140 1.456540 -172.127461 -7.986158 165.824441 -1.788369 3.342857 2.670712 -9.234138 9.203919 14.316711 0.043981 1.396721 5.797898 0.280619 -0.845313 4.295943 0.185200 -2.772000 -7.644700 0.476218 -4.285207 1.853235 19.078697 4.372799 0.887518 -1.404654 -5.901419 19.737075 3.300285 -15.817365 5.987132 -0.600900 4.962000 -13.800300 2.089614 -1.755855 8.430914 1.367247 -2.570249 -3.957373 5.859993 -1.147729 3.744836 -14.223749 -7.321826 -15.332353 -3.225892 -6.261342 7.251476 4.003200 -3.475100 6.572400 -2.195920 3.553704 -1.051498 68.323180 -59.967808 -86.786494 43.640206 -51.948548 -17.875262 0.932766 0.608474 75.751853 19.045939 7.820606 2.348000 -7.125000 0.000000 0.000000 -6.229500 36.997400 1.232300 4.894990 -1.863722 2.370052 -48.536699 58.094463 -76.838099 -73.271560 67.868329 -38.392737 0.705304 -2.696379 -17.275974 -38.806937 2.004410 -4.513200 7.125000 0.000000 0.000000 -8.860500 -22.786800 -4.793100 
-3.908910 18.008987 1.485956 -172.080975 -8.065244 165.696500 -1.788906 3.328542 2.662095 -9.314896 9.048219 14.086720 0.068755 1.595406 6.349101 0.298970 -0.966670 4.101407 0.177500 -2.713700 -7.482600 0.478010 -4.289922 1.854807 19.097886 4.220488 0.956372 -1.411005 -5.915259 19.796748 3.259459 -15.642925 5.981476 -0.587700 4.908300 -13.647100 2.195219 -1.763525 8.504461 1.358098 -2.583089 -3.946360 5.766290 -1.131376 3.658000 -14.135699 -7.226596 -15.213625 -3.260566 -6.160833 7.279368 3.994300 -3.429200 6.554800 -2.152431 3.474849 -0.960780 66.558123 -60.129532 -84.032160 43.448010 -51.878790 -17.737722 0.902551 0.630552 74.303150 18.986412 8.195103 2.476100 -7.125000 0.000000 0.000000 -6.325700 37.403100 1.188400 4.827006 -1.724997 2.139009 -46.467381 56.938073 -73.625787 -70.885638 67.625176 -36.767488 0.641436 -2.591961 -16.827523 -38.190076 2.725478 -4.828700 7.125000 0.000000 0.000000 -8.327800 -22.175200 -4.616300 
-3.927154 18.005912 1.514244 -172.046420 -8.226926 165.545889 -1.786588 3.310846 2.652121 -9.415332 8.837709 13.935044 0.091311 1.767278 6.822662 0.312565 -1.052719 3.948861 0.167000 -2.632600 -7.257600 0.479035 -4.296684 1.856134 19.091877 4.076146 1.068809 -1.417929 -5.931723 19.860602 3.220334 -15.476339 5.971297 -0.592800 4.929300 -13.706900 2.265369 -1.793571 8.602872 1.350094 -2.631183 -3.930118 5.682029 -1.130896 3.562125 -13.996608 -7.113173 -15.071053 -3.318586 -6.045306 7.297574 3.961600 -3.373800 6.517600 -2.104890 3.372324 -0.843020 64.697810 -60.112406 -81.107224 43.110776 -51.727551 -17.507147 0.878571 0.639420 73.054199 19.015439 8.487006 2.585300 -7.125000 0.000000 0.000000 -6.346300 37.724800 1.142100 4.767465 -1.548038 1.853070 -44.589103 55.204417 -69.965483 -68.944192 67.320292 -35.392701 0.590041 -2.494525 -16.340783 -37.199843 3.328463 -4.971400 7.125000 0.000000 0.000000 -7.554500 -21.756200 -4.252500 
